<?xml version="1.0" encoding="utf-8"?>
<!-- Generator: Adobe Illustrator 23.1.0, SVG Export Plug-In . SVG Version: 6.00 Build 0)  -->
<svg version="1.1" id="Layer_1" xmlns="http://www.w3.org/2000/svg" xmlns:xlink="http://www.w3.org/1999/xlink" x="0px" y="0px"
	 viewBox="0 0 239.45 43.87" style="enable-background:new 0 0 239.45 43.87;" xml:space="preserve">
<style type="text/css">
	.st0{fill:#FFFFFF;}
</style>
<path class="st0" d="M116.98,25.05c1.4,0.71,2.99,1.04,4.33,1.11c0.02,0,0.03,0,0.05,0c0.07,0,0.15,0.01,0.22,0.01
	c0.1,0,0.21,0,0.31,0c2.53,0,4.53-0.61,6.02-1.83c1.49-1.22,2.24-2.87,2.24-4.93c0-0.7-0.1-1.32-0.28-1.87
	c-0.19-0.55-0.43-1.03-0.72-1.43c-0.95-1.42-2.27-2.24-3.31-2.69c-0.14-0.06-0.28-0.11-0.43-0.16v-0.01
	c-1.46-0.45-3.17-0.92-3.17,0.57c0,0.87,0.33,0.96,0.86,1.56c0,0,0.01,0.01,0.01,0.01c0.17,0.21,0.3,0.46,0.41,0.74
	c0.17,0.44,0.3,0.95,0.36,1.53c0.07,0.58,0.1,1.19,0.1,1.83c0,0.64-0.02,1.24-0.06,1.79c-0.04,0.55-0.14,1.04-0.28,1.47
	c-0.15,0.43-0.36,0.77-0.62,1.01c-0.27,0.24-0.64,0.36-1.13,0.36c-0.46,0-0.83-0.13-1.13-0.38c-0.3-0.26-0.54-0.6-0.72-1.05
	c-0.19-0.44-0.32-0.96-0.38-1.55c-0.07-0.59-0.1-1.21-0.1-1.85c0-0.64,0.02-1.24,0.06-1.79c0.04-0.55,0.13-1.04,0.28-1.47
	c0.12-0.36,0.3-0.65,0.51-0.88c0,0,0.01-0.01,0.01-0.01c0.37-0.36,0.62-0.61,0.61-1.32c-0.02-1.44-1.74-1.07-3.19-0.57v0
	c-0.82,0.31-1.54,0.71-2.16,1.21c-0.73,0.59-1.28,1.3-1.67,2.13c-0.39,0.83-0.58,1.76-0.58,2.78c0,1.37,0.34,2.52,1.01,3.46
	C115.12,23.78,115.96,24.52,116.98,25.05"/>
<path class="st0" d="M170.96,29.2c-0.13,0-0.3,0.03-0.5,0.1c-0.2,0.07-0.39,0.1-0.58,0.1c-0.56,0-0.95-0.27-1.15-0.81
	c-0.2-0.54-0.3-1.26-0.3-2.17v-8.66c0-0.89-0.16-1.64-0.48-2.27c-0.32-0.63-0.75-1.16-1.29-1.59c-0.54-0.43-1.15-0.74-1.85-0.95
	c-0.7-0.2-1.42-0.3-2.17-0.3c-1.34,0-2.7,0.27-4.09,0.82c-1.38,0.55-2.64,1.17-3.77,1.87c-0.91,0.54-1.52,1.11-1.83,1.73
	c-0.31,0.62-0.46,1.27-0.46,1.97c0,0.32,0.14,0.56,0.42,0.72c0.28,0.16,0.6,0.24,0.95,0.24c0.51,0,1.05-0.1,1.63-0.3
	c0.58-0.2,1.04-0.45,1.39-0.75c0.08-0.11,0.13-0.21,0.16-0.32l-0.08-0.56c-0.03-0.19-0.04-0.38-0.04-0.56
	c0-0.59,0.17-1.03,0.52-1.33c0.35-0.3,0.91-0.44,1.69-0.44c0.73,0,1.39,0.25,1.99,0.75c0.6,0.5,0.9,1.3,0.9,2.4v2.13
	c0,0,0,2.04,0,2.21c0.01,4.72-0.07,5.65,0.48,6.85c0.13,0.27,0.28,0.53,0.44,0.78c0.03,0.05,0.07,0.1,0.1,0.15
	c0.03,0.03,0.05,0.07,0.08,0.1c0.02,0.03,0.04,0.05,0.06,0.08c0.01,0.02,0.03,0.03,0.04,0.05c0.1,0.11,0.21,0.21,0.32,0.31
	c0.24,0.2,0.54,0.36,0.89,0.48c0.35,0.12,0.8,0.18,1.37,0.18c0.43,0,0.9-0.05,1.43-0.14c0.52-0.1,1.03-0.22,1.53-0.36
	s0.97-0.31,1.43-0.5c0.46-0.19,0.84-0.36,1.17-0.52c0-0.13,0.01-0.28,0.02-0.44c0.01-0.16,0.02-0.31,0.02-0.44
	C171.4,29.4,171.25,29.2,170.96,29.2"/>
<path class="st0" d="M160.43,29.06L160.43,29.06c-0.07,0.01-0.15,0.01-0.22,0.01c-0.62,0-1.13-0.23-1.53-0.68
	c-0.4-0.46-0.6-1.03-0.6-1.73c0-0.78,0.18-1.36,0.54-1.75c0.36-0.39,0.85-0.7,1.47-0.95c0.09-0.04,0.19-0.08,0.28-0.12l0,0
	c0.77-0.3,0.72-1.65,0.44-1.96c-0.13-0.15-0.3-0.14-0.52-0.08v0c-0.44,0.12-0.89,0.25-1.36,0.39l-1.57,0.48
	c-0.52,0.16-1,0.32-1.43,0.48c-0.78,0.29-1.43,0.59-1.95,0.89c-0.52,0.29-0.95,0.63-1.27,1.01c-0.32,0.38-0.55,0.79-0.69,1.25
	c-0.13,0.46-0.2,0.99-0.2,1.61c0,0.64,0.11,1.24,0.34,1.79c0.23,0.55,0.55,1.03,0.97,1.43c0.41,0.4,0.91,0.72,1.49,0.95
	c0.58,0.23,1.21,0.34,1.91,0.34c1.1,0,2.07-0.19,2.92-0.56c0.08-0.04,0.16-0.07,0.23-0.11h0c1.78-1.01,1.66-2.18,1.49-2.5
	C161.06,29,160.84,29.02,160.43,29.06"/>
<path class="st0" d="M230.19,7.86c0.7,0.64,1.61,0.97,2.74,0.97c1.13,0,2.03-0.33,2.7-0.99c0.67-0.66,1.01-1.48,1.01-2.48
	c0-0.99-0.35-1.82-1.05-2.48c-0.7-0.66-1.61-0.99-2.74-0.99c-1.13,0-2.03,0.34-2.7,1.01c-0.67,0.67-1.01,1.5-1.01,2.5
	C229.15,6.4,229.49,7.22,230.19,7.86"/>
<path class="st0" d="M238.37,30.57c-0.05-0.11-0.19-0.19-0.4-0.24l-1.21-0.24c-0.46-0.08-0.73-0.36-0.81-0.83
	c-0.08-0.47-0.12-1.32-0.12-2.56v-8.78c0-0.89,0.01-1.76,0.02-2.64c0.01-0.87,0.03-1.82,0.06-2.84c-0.08-0.08-0.21-0.12-0.4-0.12
	c-0.35,0-0.77,0.08-1.25,0.24c-0.48,0.16-1.19,0.31-2.13,0.44c-0.67,0.11-1.38,0.19-2.14,0.24c-0.09,0.01-0.17,0.01-0.26,0.02l0,0
	c-0.01,0-0.03,0-0.04,0c-0.65,0.04-1.3,0.06-1.95,0.06h-0.27c-2.6,0.06-4.93,0.08-4.93,0.08s-1.93,0.03-2.06,0.14
	c-0.33,0.28-0.29,1.17-0.29,1.55c0,0.08,0.01,0.18,0.04,0.3c0.03,0.12,0.06,0.22,0.08,0.3c0.08,0.24,0.24,0.36,0.48,0.36h7.96
	c0.35,0,0.55,0.19,0.61,0.56c0.05,0.38,0.08,0.99,0.08,1.85v8.21c0,1.24-0.04,2.09-0.12,2.56c-0.08,0.47-0.35,0.75-0.8,0.83
	l-1.21,0.24c-0.22,0.05-0.34,0.13-0.38,0.24c-0.04,0.11-0.06,0.27-0.06,0.48c0,0.24,0.03,0.5,0.08,0.77
	c0.86-0.03,1.82-0.05,2.88-0.08c1.06-0.03,2.02-0.04,2.88-0.04c0.86,0,1.8,0.01,2.82,0.04c1.02,0.03,1.97,0.05,2.86,0.08
	c0.05-0.27,0.08-0.52,0.08-0.77C238.45,30.84,238.42,30.68,238.37,30.57"/>
<path class="st0" d="M225.06,28.56c-0.3,0.13-0.7,0.25-1.21,0.36c-0.51,0.11-0.99,0.16-1.45,0.16c-1.07,0-1.86-0.23-2.36-0.68
	c-0.5-0.46-0.75-1.29-0.75-2.5l0.04-15.34c0-0.88,0.01-1.73,0.04-2.54c-0.22-0.16-0.43-0.24-0.64-0.24c-0.29,0-0.5,0.08-0.6,0.24
	c-0.46,0.48-0.97,1.03-1.53,1.65c-0.56,0.62-1.16,1.24-1.79,1.87c-0.63,0.63-1.28,1.25-1.95,1.87c-0.67,0.62-1.34,1.18-2.01,1.69
	c0,0.08,0.01,0.18,0.04,0.3c0.03,0.12,0.06,0.22,0.08,0.3c0.08,0.24,0.24,0.36,0.48,0.36h0.97c0.16,0,0.29,0.07,0.38,0.2
	c0.09,0.13,0.14,0.43,0.14,0.88v8.9c0,1.02,0.09,1.92,0.26,2.7c0.17,0.78,0.48,1.44,0.9,1.99c0.43,0.55,1.01,0.97,1.73,1.25
	c0.73,0.28,1.64,0.42,2.74,0.42c1.32,0,2.52-0.21,3.62-0.64c1.1-0.43,1.97-0.87,2.62-1.33c0.32-0.24,0.52-0.46,0.58-0.64
	c0.07-0.19,0.05-0.42-0.06-0.68C225.23,28.85,225.14,28.66,225.06,28.56"/>
<path class="st0" d="M77.31,30.55c-0.07-0.09-0.19-0.17-0.38-0.22L76,30.13c-0.24-0.05-0.42-0.13-0.54-0.24
	c-0.12-0.11-0.21-0.29-0.26-0.54c-0.05-0.25-0.09-0.59-0.1-1.01c-0.01-0.42-0.02-0.96-0.02-1.63l-0.01-8.76
	c0-0.88,0.01-1.76,0.02-2.63c0.01-0.87,0.03-1.82,0.06-2.84c-0.05-0.08-0.19-0.12-0.4-0.12c-0.4,0-0.95,0.13-1.65,0.4
	c-0.7,0.27-1.48,0.52-2.33,0.76c-0.99,0.27-1.84,0.46-2.53,0.58c-0.7,0.12-1.31,0.21-1.85,0.26c-0.05,0.21-0.08,0.44-0.08,0.68
	c0,0.21,0.03,0.36,0.08,0.44c0.05,0.08,0.17,0.17,0.36,0.28l1.25,0.68c0.29,0.19,0.48,0.42,0.56,0.7c0.08,0.28,0.12,0.85,0.12,1.71
	l0,7.84c0,1.24-0.04,2.09-0.12,2.56c-0.08,0.47-0.35,0.74-0.81,0.82l-1.21,0.24c-0.21,0.05-0.35,0.13-0.4,0.22
	c-0.05,0.09-0.08,0.26-0.08,0.5c0,0.24,0.03,0.5,0.08,0.77c0.86-0.03,1.8-0.05,2.84-0.08c1.03-0.03,1.98-0.04,2.84-0.04
	c0.86,0,1.8,0.01,2.82,0.04c1.02,0.03,1.92,0.05,2.7,0.08c0.05-0.27,0.08-0.52,0.08-0.77C77.41,30.81,77.38,30.64,77.31,30.55"/>
<path class="st0" d="M132.71,31.68c-0.34-0.66-0.79-1.2-1.37-1.63c-0.58-0.43-1.26-0.74-2.03-0.93c-0.78-0.19-1.63-0.28-2.54-0.28
	c-1.15,0-2.27,0.02-3.34,0.06c-1.07,0.04-2.19,0.06-3.34,0.06c-0.78,0-1.38-0.14-1.79-0.42c-0.42-0.28-0.62-0.65-0.62-1.11
	c0-0.54,0.04-0.98-0.88-1.4c-0.63-0.29-0.78-0.2-1.3,0.17v0c-0.08,0.06-0.15,0.11-0.23,0.17c-0.32,0.23-0.63,0.45-0.93,0.67
	c-0.3,0.21-0.55,0.39-0.77,0.52c-0.11,0.22-0.19,0.52-0.24,0.91c-0.05,0.39-0.08,0.73-0.08,1.02c0,0.91,0.25,1.75,0.75,2.5
	c0.5,0.75,1.31,1.34,2.44,1.77c1.9,0.73,3.29,0.81,5.38,0.81h2.75c0.81,0,1.5,0.21,2.09,0.64c0.59,0.43,0.89,1.06,0.89,1.89
	c0,0.91-0.37,1.7-1.11,2.35c-0.07,0.06-0.14,0.12-0.21,0.17h0c-1,0.81-1.6,1.14-1.56,1.95c0.04,0.68,0.68,0.94,2.57,0.18
	c0.03-0.01,0.05-0.02,0.07-0.03c1.12-0.46,2.07-1.01,2.85-1.66c1.02-0.85,1.78-1.8,2.3-2.86c0.51-1.06,0.76-2.11,0.76-3.16
	C133.21,33.12,133.04,32.33,132.71,31.68"/>
<path class="st0" d="M123.54,41.47c-0.1-0.57-0.98-0.85-2.44-1.24l0,0c-0.08-0.02-0.17-0.04-0.25-0.06
	c-0.64-0.17-1.21-0.42-1.69-0.73c-0.48-0.31-0.87-0.68-1.15-1.13c-0.28-0.44-0.42-0.95-0.42-1.51c0.02-0.43,0.06-0.62,0.16-0.95
	c0.08-0.26,0.05-0.41-0.03-0.52c-0.16-0.21-0.42-0.15-0.59-0.09c-0.87,0.35-2.2,0.97-3.47,2.33c-0.57,0.61-0.98,2.03-0.4,2.84
	l-0.01,0.01c0.02,0.02,0.04,0.05,0.07,0.07c0,0,0,0,0.01,0.01c0.56,0.58,1.25,1.05,2.06,1.39c0.85,0.36,1.75,0.62,2.72,0.76
	c0.14,0.02,0.27,0.04,0.4,0.06c0.16,0.03,0.35,0.06,0.55,0.08C122.58,43.12,123.68,42.25,123.54,41.47"/>
<path class="st0" d="M132.65,13.74c-0.03-0.22-0.12-0.35-0.28-0.4l-2.79,0.15c-1.25,0.07-1.1,0.53-0.68,0.99
	c0.42,0.46,1.1,1.4,2.22,1.48h0l1.25,0.08c0.16-0.05,0.25-0.21,0.28-0.46c0.03-0.26,0.04-0.57,0.04-0.95
	C132.69,14.25,132.67,13.95,132.65,13.74"/>
<path class="st0" d="M12.97,40.8l-1.97-0.28c-0.46-0.05-0.74-0.31-0.85-0.78c-0.11-0.47-0.16-1.32-0.16-2.56V26.42l-0.01-8.09
	c0-1.66,0-2.8,0-2.99c0.01-0.87,0.03-1.82,0.06-2.84c-0.05-0.08-0.19-0.12-0.4-0.12c-0.4,0-0.95,0.13-1.65,0.4
	c-0.7,0.27-1.48,0.52-2.33,0.76c-0.99,0.27-1.84,0.46-2.53,0.58c-0.7,0.12-1.31,0.21-1.85,0.26C1.22,14.6,1.2,14.83,1.2,15.07
	c0,0.21,0.03,0.36,0.08,0.44c0.05,0.08,0.17,0.17,0.36,0.28l1.25,0.68c0.29,0.19,0.48,0.42,0.56,0.7c0.08,0.28,0.12,0.85,0.12,1.71
	l0.02,2.01v16.27c0,1.24-0.04,2.09-0.12,2.56c-0.08,0.47-0.35,0.75-0.8,0.82L1.45,40.8c-0.21,0.05-0.35,0.13-0.4,0.22
	c-0.05,0.09-0.08,0.26-0.08,0.5c0,0.24,0.03,0.5,0.08,0.77c0.86-0.03,1.82-0.05,2.9-0.08c1.07-0.03,2.04-0.04,2.9-0.04
	c0.43,0,0.93,0.01,1.51,0.02c0.58,0.01,1.16,0.03,1.75,0.04c0.59,0.02,1.17,0.03,1.75,0.04c0.58,0.01,1.08,0.02,1.51,0.02
	c0.05-0.27,0.08-0.52,0.08-0.77c0-0.24-0.03-0.41-0.08-0.52C13.31,40.89,13.18,40.82,12.97,40.8"/>
<path class="st0" d="M22.97,17.99c-0.36-1.14-0.87-2.11-1.51-2.9c-0.65-0.79-1.42-1.4-2.34-1.83c-0.88-0.41-1.84-0.63-2.89-0.64l0,0
	c0,0-1.37-0.13-3.04,0.59c-1.93,0.83-2.32,1.97-2.32,2.38c0,0.42,0.23,1,1.13,0.91c0.04,0,0.08-0.01,0.12-0.02
	c0.16-0.02,0.33-0.03,0.51-0.03c1.21,0,2.2,0.54,2.98,1.63c0.78,1.09,1.17,2.66,1.17,4.73c0,1.91-0.3,3.46-0.91,4.67l-0.01,0.02
	c-0.1,0.21-0.91,1.71-3,2.13c-1.22,0.25-1.78,0.55-1.78,1.18c0,0.51,0.94,0.97,2.72,0.97c0.1,0,0.21,0,0.34-0.01
	c1.32-0.04,2.53-0.28,3.63-0.74c1.19-0.5,2.21-1.19,3.06-2.07c0.85-0.88,1.5-1.94,1.97-3.16c0.47-1.22,0.7-2.56,0.7-4.01
	C23.51,20.39,23.33,19.13,22.97,17.99"/>
<path class="st0" d="M90.32,30.55c-0.04-0.09-0.17-0.17-0.38-0.22l-1.21-0.24c-0.46-0.08-0.72-0.36-0.8-0.83
	c-0.08-0.47-0.12-1.32-0.12-2.56v-7.61c0-0.35-0.01-0.74-0.02-1.17c-0.01-0.43-0.06-0.86-0.14-1.29c-0.08-0.43-0.22-0.86-0.42-1.29
	c-0.2-0.43-0.49-0.82-0.86-1.17c-0.62-0.56-1.3-0.97-2.05-1.21c-0.75-0.24-1.58-0.36-2.5-0.36c-0.13,0-0.25,0-0.38,0.01
	c0.01-0.01,0.01-0.02,0.01-0.02s-1.37-0.13-3.04,0.59c-1.93,0.83-2.32,1.97-2.32,2.38c0,0.41,0.23,1,1.11,0.91l-0.01,0.01l0,0
	c0.25-0.04,0.51-0.06,0.79-0.06c1.13,0,2.03,0.38,2.7,1.13c0.35,0.4,0.56,0.85,0.62,1.35c0.07,0.5,0.1,1,0.1,1.51v6.28
	c0,0.67-0.01,1.22-0.02,1.63c-0.01,0.42-0.05,0.75-0.1,1.01c-0.05,0.26-0.14,0.44-0.26,0.54c-0.12,0.11-0.3,0.19-0.54,0.24
	l-0.93,0.2c-0.19,0.05-0.32,0.13-0.38,0.22c-0.07,0.09-0.1,0.26-0.1,0.5c0,0.24,0.03,0.5,0.08,0.77c0.78-0.03,1.68-0.05,2.7-0.08
	c1.02-0.03,1.96-0.04,2.82-0.04c0.86,0,1.8,0.01,2.82,0.04c1.02,0.03,1.96,0.05,2.82,0.08c0.05-0.27,0.08-0.52,0.08-0.77
	C90.38,30.81,90.36,30.64,90.32,30.55"/>
<path class="st0" d="M110.87,18.33c-0.52-1.21-1.27-2.23-2.24-3.08c-0.97-0.85-2.12-1.5-3.46-1.95c-1.71-0.44-3.71-0.93-3.71,0.54
	c0.01,1.37,0.99,0.76,2.34,3.43c0.32,0.71,0.56,1.53,0.71,2.45c0.15,0.93,0.22,1.87,0.22,2.84c0,0.97-0.05,1.91-0.16,2.84
	c-0.11,0.93-0.3,1.74-0.56,2.43c-0.02,0.06-0.05,0.11-0.07,0.17c-0.08,0.19-0.24,0.51-0.46,0.84c-0.18,0.26-0.38,0.49-0.6,0.68
	c-0.88,0.71-1.15,0.98-1.14,1.81c0.01,0.68,0.5,1.47,3.77,0.34c0.14-0.05,0.27-0.1,0.38-0.15c1.14-0.48,2.12-1.12,2.94-1.92
	c0.91-0.89,1.61-1.95,2.09-3.18c0.48-1.24,0.73-2.58,0.73-4.03C111.65,20.89,111.39,19.54,110.87,18.33"/>
<path class="st0" d="M99.23,29.5c-0.5-0.44-0.9-1.02-1.21-1.73c-0.31-0.71-0.54-1.53-0.68-2.46s-0.22-1.87-0.22-2.84
	c0-0.97,0.05-1.91,0.14-2.84c0.09-0.93,0.27-1.74,0.54-2.44c1.01-2.39,2.28-1.95,2.26-3.37c-0.02-1.42-2.32-1.09-3.73-0.48
	c-1.3,0.5-2.41,1.19-3.32,2.07c-0.91,0.89-1.61,1.95-2.09,3.18c-0.48,1.24-0.73,2.58-0.73,4.03c0,1.5,0.26,2.86,0.79,4.07
	c0.52,1.21,1.27,2.24,2.23,3.08c0.9,0.79,1.96,1.4,3.18,1.85c0.09,0.04,0.18,0.07,0.28,0.1c2.96,0.91,3.68,0.36,3.67-0.49
	C100.33,30.4,100.03,30.19,99.23,29.5"/>
<path class="st0" d="M183.75,30.33l-1.25-0.24c-0.46-0.08-0.73-0.36-0.81-0.83c-0.08-0.47-0.12-1.32-0.12-2.56V16.35v-3.3V9.43
	c0-1.48,0.15-2.58,0.44-3.32S182.85,5,183.63,5c0.38,0,0.71,0.09,1.01,0.26c0.29,0.17,0.58,0.36,0.87,0.56
	c0.28,0.2,0.56,0.39,0.84,0.56c0.28,0.17,0.58,0.26,0.91,0.26c0.38,0,0.69-0.13,0.94-0.38c0.26-0.26,0.46-0.55,0.6-0.89
	c0.15-0.34,0.25-0.68,0.3-1.03c0.05-0.35,0.08-0.63,0.08-0.84c0-0.43-0.09-0.79-0.28-1.07c-0.19-0.28-0.43-0.5-0.72-0.67
	c-0.29-0.16-0.63-0.27-1.01-0.32c-0.38-0.05-0.74-0.08-1.09-0.08c-1.53,0-2.97,0.37-4.33,1.11c-1.36,0.74-2.54,1.72-3.56,2.96
	c-0.94,1.1-1.68,2.32-2.21,3.64s-0.81,2.72-0.81,4.17c-0.21,0.29-0.52,0.62-0.93,0.99c-0.4,0.36-0.75,0.65-1.05,0.86
	c0,0.08,0.01,0.18,0.04,0.3c0.03,0.12,0.05,0.22,0.08,0.3c0.08,0.24,0.24,0.36,0.48,0.36h0.88c0.16,0,0.28,0.07,0.36,0.2
	c0.08,0.13,0.12,0.43,0.12,0.89v9.54c0,1.24-0.04,2.09-0.12,2.56c-0.08,0.47-0.35,0.75-0.81,0.83L173,30.33
	c-0.21,0.05-0.34,0.13-0.38,0.24c-0.04,0.11-0.06,0.27-0.06,0.48c0,0.24,0.03,0.5,0.08,0.76c0.86-0.02,1.82-0.05,2.88-0.08
	c1.06-0.03,2.02-0.04,2.88-0.04c0.86,0,1.81,0.01,2.86,0.04c1.05,0.03,2.01,0.05,2.9,0.08c0.05-0.27,0.08-0.52,0.08-0.76
	c0-0.21-0.03-0.38-0.08-0.48C184.1,30.46,183.97,30.38,183.75,30.33"/>
<path class="st0" d="M197.2,30.33l-1.25-0.24c-0.46-0.08-0.72-0.36-0.8-0.83c-0.08-0.47-0.12-1.32-0.12-2.56V16.35v-3.3v-2.62
	c0-1.99,0.28-3.53,0.83-4.63c0.55-1.1,1.55-1.65,3-1.65c0.89,0,1.61,0.21,2.17,0.64c0.56,0.43,1.07,0.91,1.53,1.43
	c0.46,0.52,0.9,1,1.33,1.43c0.43,0.43,0.93,0.64,1.49,0.64c0.35,0,0.71-0.1,1.09-0.3c0.38-0.2,0.72-0.46,1.03-0.77
	c0.31-0.31,0.56-0.65,0.76-1.03c0.2-0.38,0.3-0.74,0.3-1.09c0-0.38-0.07-0.69-0.2-0.95c-0.13-0.25-0.34-0.53-0.6-0.82
	c-0.4-0.43-0.89-0.79-1.45-1.07c-0.56-0.28-1.16-0.5-1.79-0.66c-0.63-0.16-1.26-0.27-1.89-0.34c-0.63-0.07-1.23-0.1-1.79-0.1
	c-1.29,0-2.5,0.15-3.64,0.46c-1.1,0.3-2.1,0.71-3.01,1.21c-2.36,1.47-3.29,2.7-4.42,4.81c-0.38,0.86-0.65,1.73-0.82,2.62
	c-0.17,0.89-0.26,1.8-0.26,2.74c-0.05,0.13-0.13,0.24-0.24,0.32c-0.12,0.12-3.65,0.08-3.65,0.08s-1.93,0.03-2.06,0.14
	c-0.33,0.28-0.29,1.17-0.29,1.55c0,0.08,0.01,0.18,0.04,0.3c0.03,0.12,0.05,0.22,0.08,0.3c0.08,0.24,0.24,0.36,0.48,0.36h5.12
	c0.16,0,0.29,0.07,0.38,0.2c0.1,0.13,0.14,0.43,0.14,0.89v9.54c0,1.24-0.04,2.09-0.12,2.56c-0.08,0.47-0.35,0.75-0.81,0.83
	l-1.25,0.24c-0.21,0.05-0.35,0.13-0.4,0.24c-0.05,0.11-0.08,0.27-0.08,0.48c0,0.24,0.03,0.5,0.08,0.76
	c0.86-0.02,1.82-0.05,2.88-0.08c1.06-0.03,2.02-0.04,2.88-0.04c0.86,0,1.82,0.01,2.88,0.04c1.06,0.03,2.02,0.05,2.88,0.08
	c0.05-0.27,0.08-0.52,0.08-0.77c0-0.21-0.03-0.38-0.08-0.48C197.55,30.46,197.42,30.38,197.2,30.33"/>
<path class="st0" d="M211.05,30.57c-0.05-0.11-0.19-0.19-0.4-0.24l-1.21-0.24c-0.46-0.08-0.73-0.36-0.81-0.83
	c-0.08-0.47-0.12-1.32-0.12-2.56v-8.78c0-0.89,0.01-1.76,0.02-2.64c0.01-0.87,0.03-1.82,0.06-2.84c-0.08-0.08-0.21-0.12-0.4-0.12
	c-0.35,0-0.77,0.08-1.25,0.24c-0.48,0.16-1.19,0.31-2.13,0.44c-0.55,0.09-1.13,0.16-1.73,0.21h0c-1.51,0.15-4.86,0.19-4.86,0.19
	s-1.93,0.03-2.06,0.14c-0.33,0.28-0.29,1.17-0.29,1.55c0,0.08,0.01,0.18,0.04,0.3c0.03,0.12,0.06,0.22,0.08,0.3
	c0.08,0.24,0.24,0.36,0.48,0.36h4.96c0.35,0,0.55,0.19,0.6,0.56c0.05,0.38,0.08,0.99,0.08,1.85v8.21c0,1.24-0.04,2.09-0.12,2.56
	s-0.35,0.75-0.8,0.83l-1.21,0.24c-0.21,0.05-0.34,0.13-0.38,0.24c-0.04,0.11-0.06,0.27-0.06,0.48c0,0.24,0.03,0.5,0.08,0.77
	c0.86-0.03,1.82-0.05,2.88-0.08c1.06-0.03,2.02-0.04,2.88-0.04c0.86,0,1.8,0.01,2.82,0.04c1.02,0.03,1.97,0.05,2.86,0.08
	c0.05-0.27,0.08-0.52,0.08-0.77C211.13,30.84,211.11,30.68,211.05,30.57"/>
<path class="st0" d="M46.24,18.33c-0.52-1.21-1.27-2.23-2.24-3.08c-0.97-0.85-2.12-1.5-3.46-1.95c-1.71-0.44-3.71-0.93-3.71,0.54
	c0.01,1.37,0.99,0.76,2.34,3.43c0.32,0.71,0.56,1.53,0.71,2.45c0.15,0.93,0.22,1.87,0.22,2.84c0,0.97-0.05,1.91-0.16,2.84
	c-0.11,0.93-0.3,1.74-0.56,2.43c-0.02,0.06-0.05,0.11-0.07,0.17c-0.08,0.19-0.24,0.51-0.46,0.84c-0.18,0.26-0.38,0.49-0.6,0.68
	c-0.88,0.71-1.15,0.98-1.14,1.81c0.01,0.68,0.5,1.47,3.77,0.34c0.14-0.05,0.27-0.1,0.38-0.15c1.14-0.48,2.12-1.12,2.94-1.92
	c0.91-0.89,1.61-1.95,2.09-3.18c0.48-1.24,0.73-2.58,0.73-4.03C47.02,20.89,46.76,19.54,46.24,18.33"/>
<path class="st0" d="M34.6,29.5c-0.5-0.44-0.9-1.02-1.21-1.73c-0.31-0.71-0.54-1.53-0.69-2.46c-0.15-0.93-0.22-1.87-0.22-2.84
	c0-0.97,0.05-1.91,0.14-2.84c0.09-0.93,0.27-1.74,0.54-2.44c1.01-2.39,2.28-1.95,2.26-3.37c-0.02-1.42-2.32-1.09-3.73-0.48
	c-1.3,0.5-2.41,1.19-3.32,2.07c-0.91,0.89-1.61,1.95-2.09,3.18c-0.48,1.24-0.72,2.58-0.72,4.03c0,1.5,0.26,2.86,0.79,4.07
	c0.52,1.21,1.27,2.24,2.23,3.08c0.9,0.79,1.96,1.4,3.18,1.85c0.09,0.04,0.18,0.07,0.28,0.1c2.96,0.91,3.68,0.36,3.67-0.49
	C35.7,30.4,35.4,30.19,34.6,29.5"/>
<path class="st0" d="M151.04,13.11c-0.5-0.34-1.09-0.5-1.79-0.5c-0.99,0-1.87,0.19-2.65,0.58l0,0c0,0-1.07,0.55-1.76,1.16
	c-0.21,0.19-0.49,0.84-0.14,1.62c0.2,0.45,0.99,0.83,1.9,1.53v0c0.2,0.16,0.4,0.32,0.6,0.5c0.3,0.27,0.59,0.51,0.88,0.72
	c0.3,0.21,0.65,0.32,1.05,0.32c0.37,0,0.72-0.16,1.05-0.46c0.32-0.31,0.6-0.69,0.85-1.15c0.24-0.45,0.43-0.93,0.56-1.43
	c0.13-0.5,0.2-0.93,0.2-1.31C151.79,13.98,151.54,13.45,151.04,13.11"/>
<path class="st0" d="M146.59,30.33l-2.01-0.28c-0.46-0.06-0.74-0.32-0.86-0.79c-0.12-0.47-0.17-1.32-0.17-2.55v-8.74
	c0-0.88,0.01-1.76,0.02-2.63c0.01-0.87,0.03-1.82,0.06-2.84c-0.05-0.08-0.19-0.12-0.4-0.12c-0.4,0-0.95,0.13-1.65,0.4
	c-0.7,0.27-1.47,0.52-2.33,0.76c-0.99,0.27-1.84,0.46-2.53,0.58c-0.7,0.12-1.31,0.21-1.85,0.26c-0.05,0.21-0.08,0.44-0.08,0.68
	c0,0.21,0.03,0.36,0.08,0.44c0.05,0.08,0.17,0.17,0.36,0.28l1.25,0.68c0.29,0.19,0.48,0.42,0.56,0.7c0.08,0.28,0.12,0.85,0.12,1.71
	v7.84c0,1.23-0.04,2.09-0.12,2.55c-0.08,0.47-0.35,0.74-0.8,0.82l-1.21,0.24c-0.21,0.05-0.35,0.13-0.4,0.22
	c-0.05,0.09-0.08,0.26-0.08,0.5c0,0.24,0.03,0.5,0.08,0.76c0.86-0.03,1.82-0.05,2.9-0.08c1.05-0.03,2.01-0.04,2.85-0.04l-0.02-0.02
	l0.09-0.06l-0.04,0.06c0.43,0,0.93,0.01,1.51,0.02c0.58,0.01,1.17,0.03,1.79,0.04c0.62,0.01,1.21,0.03,1.79,0.04
	c0.58,0.01,1.08,0.02,1.51,0.02c0.05-0.27,0.08-0.52,0.08-0.76c0-0.24-0.03-0.42-0.08-0.52C146.94,30.42,146.81,30.35,146.59,30.33"
	/>
<path class="st0" d="M63.9,13.11c-0.5-0.34-1.09-0.5-1.79-0.5c-0.99,0-1.87,0.19-2.65,0.58l0,0c0,0-1.07,0.55-1.76,1.16
	c-0.21,0.19-0.49,0.84-0.14,1.62c0.2,0.45,0.99,0.83,1.9,1.53v0c0.2,0.16,0.4,0.32,0.6,0.5c0.3,0.27,0.59,0.51,0.89,0.72
	c0.3,0.21,0.64,0.32,1.05,0.32c0.38,0,0.72-0.16,1.05-0.46c0.32-0.31,0.6-0.69,0.85-1.15c0.24-0.45,0.43-0.93,0.56-1.43
	c0.13-0.5,0.2-0.93,0.2-1.31C64.65,13.98,64.4,13.45,63.9,13.11"/>
<path class="st0" d="M59.45,30.33l-2.01-0.28c-0.46-0.06-0.74-0.32-0.86-0.79c-0.12-0.47-0.17-1.32-0.17-2.55v-8.74
	c0-0.88,0.01-1.76,0.02-2.63c0.01-0.87,0.03-1.82,0.06-2.84c-0.05-0.08-0.19-0.12-0.4-0.12c-0.4,0-0.95,0.13-1.65,0.4
	c-0.7,0.27-1.47,0.52-2.33,0.76c-0.99,0.27-1.84,0.46-2.53,0.58c-0.7,0.12-1.31,0.21-1.85,0.26c-0.05,0.21-0.08,0.44-0.08,0.68
	c0,0.21,0.03,0.36,0.08,0.44c0.05,0.08,0.17,0.17,0.36,0.28l1.25,0.68c0.29,0.19,0.48,0.42,0.56,0.7c0.08,0.28,0.12,0.85,0.12,1.71
	v7.84c0,1.23-0.04,2.09-0.12,2.55c-0.08,0.47-0.35,0.74-0.8,0.82l-1.21,0.24c-0.21,0.05-0.35,0.13-0.4,0.22
	c-0.05,0.09-0.08,0.26-0.08,0.5c0,0.24,0.03,0.5,0.08,0.76c0.86-0.03,1.82-0.05,2.9-0.08c1.05-0.03,2.01-0.04,2.85-0.04l-0.02-0.02
	l0.09-0.06l-0.04,0.06c0.43,0,0.93,0.01,1.51,0.02c0.58,0.01,1.17,0.03,1.79,0.04c0.62,0.01,1.22,0.03,1.79,0.04
	c0.58,0.01,1.08,0.02,1.51,0.02c0.05-0.27,0.08-0.52,0.08-0.76c0-0.24-0.03-0.42-0.08-0.52C59.8,30.42,59.67,30.35,59.45,30.33"/>
</svg>
